<svg width="24" height="22" viewBox="0 0 24 22" fill="none" xmlns="http://www.w3.org/2000/svg">
<path d="M5.50881 1.0655C2.91605 1.48472 1.22344 3.39301 1.03394 6.1179C0.89181 8.12664 1.53354 9.9869 3.0108 11.869C3.3209 12.2664 6.46494 15.5328 10.3756 19.5284L11.8184 21H12.206L13.6488 19.5284C17.5595 15.5371 20.7035 12.2664 21.0136 11.869C22.2239 10.3319 22.8742 8.79476 22.9948 7.19214C23.1628 4.92576 22.3143 2.96507 20.6992 1.8952C19.7905 1.29694 18.7267 1 17.482 1C15.9401 1 14.8935 1.33188 13.8427 2.16157C13.4895 2.43668 12.641 3.30568 12.2491 3.78603C12.1328 3.9345 12.0251 4.0524 12.0122 4.0524C11.9993 4.0524 11.827 3.8559 11.6246 3.61572C9.97506 1.65065 8.67438 0.991266 6.49939 1.00437C6.15484 1.00873 5.71123 1.03493 5.50881 1.0655ZM7.08082 1.9607C8.02404 2.03493 8.79928 2.30568 9.44962 2.78603C9.85447 3.08734 10.5263 3.76856 11.181 4.54585C11.9993 5.51528 12.0251 5.51528 12.8478 4.53275C13.8599 3.33624 14.5275 2.73799 15.2252 2.39301C16.4311 1.79913 18.3735 1.79039 19.6096 2.37118C20.9663 3.00437 21.7932 4.17904 22.0301 5.80349C22.1076 6.34498 22.0947 7.13974 21.9999 7.68122C21.7673 9.0262 21.0524 10.4279 19.9843 11.6332C19.6785 11.9825 16.444 15.3188 13.4249 18.4017L12.0122 19.8472L10.5608 18.3581C8.86819 16.6332 6.68028 14.3843 5.11688 12.7686C3.47164 11.0699 2.98927 10.4061 2.42937 9.0786C1.76611 7.51092 1.78334 5.62009 2.46814 4.24454C3.10986 2.95197 4.38471 2.1179 5.95242 1.96507C6.5037 1.91266 6.5037 1.91266 7.08082 1.9607Z" stroke="black"/>
</svg>
