<svg width="40" height="46" viewBox="0 0 40 46" fill="none" xmlns="http://www.w3.org/2000/svg">
<path d="M12.3358 4.99509H5.33643V24.2747L9.53604 23.5736V15.6865H11.8983V12.0059L9.53604 12.1811V8.50048H12.3358V4.99509Z" fill="white"/>
<path d="M11.3734 25.1511L5.16144 25.9398V40.5748C7.0571 40.5164 11.1459 40.3995 12.3358 40.3995C13.5257 40.3995 13.8231 39.2311 13.8231 38.6468V33.7393C13.8231 32.7578 12.5399 32.1618 11.8983 31.9866C13.0182 31.636 13.4732 30.7305 13.5607 30.3215C13.619 29.7373 13.7007 28.2008 13.5607 26.7285C13.4207 25.2562 12.0441 25.0634 11.3734 25.1511Z" fill="white"/>
<path d="M33.6838 4.99509H24.5847V7.7994H27.0344V20.857L31.234 20.2435V7.5365H33.6838V4.99509Z" fill="white"/>
<path d="M18.6352 40.5748H14.5231L16.5354 24.0118L22.1349 23.2231L24.2347 40.5748H20.2101L20.0351 37.8581H18.6352V40.5748Z" fill="white"/>
<path d="M18.6352 34.7909L19.4226 27.4296L20.0351 34.7909H18.6352Z" fill="#161616"/>
<path d="M8.92359 31.1102V27.6048C9.9735 27.4646 10.1776 28.0138 10.1485 28.3059C10.1776 28.7441 10.2185 29.7782 10.1485 30.4092C10.0785 31.0401 9.30273 31.1394 8.92359 31.1102Z" fill="#161616"/>
<path d="M8.92359 38.3839V33.9145C9.9035 33.7042 10.1485 34.2359 10.1485 34.528V37.5952C10.1485 38.3664 9.33189 38.4423 8.92359 38.3839Z" fill="#161616"/>
<path d="M39.1089 0V45.4824H35.7842V3.33012H3.14971V42.5905H30.1847C30.1847 34.2652 30.0972 33.2311 29.7473 32.6001C29.3973 31.9691 28.8432 32.3372 28.6099 32.6001V40.6625H25.1102V22.8727C25.7518 22.7558 27.7874 22.4695 30.7972 22.2592C34.5593 21.9963 33.5094 26.3781 33.4219 28.306C33.3519 29.8484 32.4012 30.9351 31.9345 31.2856C33.0544 31.2856 33.2761 32.4541 33.2469 33.0383V45.4824H0V0H39.1089Z" fill="#CEF600"/>
<path d="M22.048 22.2592L16.8859 22.8727V21.2076L22.048 20.4189V22.2592Z" fill="#CEF600"/>
<path d="M16.011 20.9447L16.0985 19.4549L22.6604 18.4909V19.8931L16.011 20.9447Z" fill="#CEF600"/>
<path d="M15.5736 19.0167V17.5269L23.0104 16.3877V17.8775L15.5736 19.0167Z" fill="#CEF600"/>
<path d="M20.1231 16.4753H18.5483V10.8667H20.1231V16.4753Z" fill="#CEF600"/>
<path d="M23.0104 10.4285H15.7485V8.85111H23.0104V10.4285Z" fill="#CEF600"/>
<path d="M16.0985 8.41293V7.09841H22.4854V8.41293H16.0985Z" fill="#CEF600"/>
<path d="M16.7984 6.66024V5.17045H21.873V6.66024H16.7984Z" fill="#CEF600"/>
<path d="M28.8723 28.6566V26.1151C29.2223 25.6244 29.6014 25.9107 29.7473 26.1151V28.6566C29.3973 29.2875 29.0182 28.9195 28.8723 28.6566Z" fill="#161616"/>
</svg>
